<svg xmlns="http://www.w3.org/2000/svg" viewBox="0 0 1440 320">
  <path fill="#0099ff" fill-opacity="0.5" d="M0,192L48,197.3C96,203,192,213,288,229.3C384,245,480,267,576,250.7C672,235,768,181,864,181.3C960,181,1056,235,1152,234.7C1248,235,1344,181,1392,154.7L1440,128L1440,320L1392,320C1344,320,1248,320,1152,320C1056,320,960,320,864,320C768,320,672,320,576,320C480,320,384,320,288,320C192,320,96,320,48,320L0,320Z"></path>
  <path fill="#0066ff" fill-opacity="0.3" d="M0,128L48,138.7C96,149,192,171,288,170.7C384,171,480,149,576,133.3C672,117,768,107,864,128C960,149,1056,203,1152,218.7C1248,235,1344,213,1392,202.7L1440,192L1440,320L1392,320C1344,320,1248,320,1152,320C1056,320,960,320,864,320C768,320,672,320,576,320C480,320,384,320,288,320C192,320,96,320,48,320L0,320Z"></path>
  <path fill="#0033ff" fill-opacity="0.2" d="M0,64L48,85.3C96,107,192,149,288,165.3C384,181,480,171,576,181.3C672,192,768,224,864,218.7C960,213,1056,171,1152,149.3C1248,128,1344,128,1392,128L1440,128L1440,320L1392,320C1344,320,1248,320,1152,320C1056,320,960,320,864,320C768,320,672,320,576,320C480,320,384,320,288,320C192,320,96,320,48,320L0,320Z"></path>
</svg>